<?xml version="1.0" encoding="UTF-8"?>
<svg width="256px" height="256px" viewBox="0 0 256 256" version="1.1" xmlns="http://www.w3.org/2000/svg" xmlns:xlink="http://www.w3.org/1999/xlink">
    <!-- Generator: Sketch 45.2 (43514) - http://www.bohemiancoding.com/sketch -->
    <title>Logo</title>
    <desc>Created with Sketch.</desc>
    <defs></defs>
    <g id="Page-1" stroke="none" stroke-width="1" fill="none" fill-rule="evenodd">
        <g id="Logo" fill="#FFFFFF">
            <path d="M136.714955,175.157139 C140.284135,173.249997 143.875346,173.887547 145.303294,174.717877 C145.482303,174.847315 145.741179,175.728594 145.522236,175.90898 C144.205826,176.980285 141.571628,178.994833 139.938508,180.012435 C138.035497,181.202162 134.737586,182.526834 134.142723,181.455529 C133.547859,180.386979 133.147153,177.05602 136.714955,175.157139 Z M211.5135,79.7366688 C207.875471,74.3030338 198.343889,60.1598848 187.869063,52.1030681 C180.847749,46.4436053 185.547444,43.5808259 187.820868,42.771151 C191.533256,41.7149933 196.033286,41.5401145 200.609051,46.1172567 C202.123749,47.6333318 203.712805,49.5184424 205.32527,51.6004637 C205.615817,51.9791382 208.183918,56.2918967 208.634197,57.2131085 C209.296533,58.5680748 210.46285,61.0769656 211.532778,63.4908435 C212.403041,65.4516891 214.756331,70.0880421 216.80255,68.9836895 C217.9909,68.8638907 216.24762,64.7824679 215.771179,63.117677 C215.23828,61.2532214 215.201101,59.8720922 214.657187,58.459292 C214.062324,56.9156769 213.595521,53.9620157 212.70185,52.3357808 C211.633299,50.3873282 212.328683,48.4664157 205.735615,40.7497175 C201.210799,34.891967 200.067891,34.2585478 200.067891,32.2866863 C200.067891,31.1410238 202.309644,31.0060779 206.647188,34.0451131 C208.720948,35.5006002 211.275279,37.6652415 211.839849,38.4707854 C212.767946,39.7913268 214.23858,41.5456225 215.369095,44.1495262 C216.126444,45.892806 217.781596,49.5528673 218.285578,50.7467248 C218.285578,50.7467248 221.014788,58.2375952 222.869605,56.3827786 C223.402503,55.8498803 221.820332,48.3727798 221.316351,46.8360498 C220.600312,44.6493766 219.968269,41.2096349 219.512483,40.2760301 C218.671137,38.5492743 217.840807,36.6200998 217.211519,35.1714976 C214.595222,29.1471303 212.299766,26.223763 208.81183,22.3998389 C204.755193,17.7015209 197.196849,11.9112433 176.693346,9.07875789 C175.404475,8.90112512 176.014485,6.35092437 177.899596,5.855205 C180.628806,5.13228092 183.732561,5.12126493 186.450755,5.12126493 C189.091838,5.12126493 190.992095,6.38397233 193.246241,6.56711309 C194.11375,6.72684489 194.07244,6.18293058 194.040769,5.83730402 C193.843859,3.56663392 184.974613,0.387144968 179.327543,0.146170275 C144.711184,-1.33547984 133.629102,8.87358515 131.073394,11.4981438 C128.366215,14.2796803 125.679692,18.4850329 125.20325,23.2398078 C124.728186,27.9959598 127.688732,35.9302237 128.784823,37.0235603 C129.124941,37.3609248 129.407226,37.7437304 129.039567,37.7437304 C112.541751,35.5556801 91.8275667,36.0238596 75.2292298,42.2492686 C47.4358972,52.6717683 24.9605319,80.8602994 22.528753,109.174137 C14.685371,200.544856 97.3355596,208.150017 100.320892,208.614066 C100.86756,208.626459 109.476553,209.217191 110.44596,209.170373 C111.873907,209.101523 121.245757,208.835762 124.035556,208.403385 C125.38226,208.195458 132.957127,207.219166 136.68053,206.599517 C152.29156,203.833128 160.815179,198.15301 165.568577,195.170432 C171.696219,191.320345 174.183078,189.628014 174.987245,189.72165 C175.790035,189.807024 175.87954,190.287596 175.970421,191.71692 C176.058549,193.142113 176.204511,194.268498 175.043702,195.514681 C173.884269,196.763619 175.222711,197.296517 177.096806,195.426553 C178.970901,193.552459 185.661735,186.509113 187.000177,176.788882 C188.220198,169.448105 186.73304,170.636454 184.858945,171.351116 C184.455485,171.502586 184.064417,173.499233 182.994489,174.481033 C181.924562,175.462833 168.498829,189.203898 138.191098,194.732546 C125.832538,194.732546 121.490863,193.030576 117.660054,189.199767 C115.299879,187.733264 115.977362,185.081166 116.780152,185.527313 C117.582942,185.972083 121.331131,187.932929 124.810806,188.559463 C128.289103,189.181866 134.25426,188.972563 136.809968,188.82247 C143.922164,188.081645 160.353884,182.926163 176.579055,168.00501 C177.11333,167.382607 183.699513,164.484026 185.394597,163.145584 C187.091059,161.808518 188.20092,160.858389 188.290425,160.412242 C188.37993,159.967472 188.412978,159.247302 187.447702,158.774991 C186.442493,158.286157 186.37502,157.973578 185.57223,157.26167 C184.76944,156.548385 180.040828,152.001537 177.542953,151.110619 C175.043702,150.218324 170.404595,148.969387 167.994848,148.879882 C165.586478,148.790377 164.248035,148.969387 163.53475,149.415534 C162.821465,149.858927 163.624255,150.749845 163.624255,150.749845 C163.624255,150.749845 166.30114,152.804327 167.014425,153.160969 C167.72771,153.516235 169.274079,155.603764 169.424172,156.103615 C169.959824,157.888204 169.33329,159.492407 168.173857,161.09661 C167.014425,162.700813 165.49835,164.393144 161.036875,165.643458 C156.575401,166.891019 152.896062,167.90862 150.0801,167.404639 C146.081298,166.684469 142.834336,165.405238 139.937131,165.164263 C136.73561,164.902633 131.976704,168.510369 131.076148,168.743081 C130.175591,168.979925 124.736448,168.120678 117.226299,164.305016 C109.716151,160.490731 105.647121,157.911613 102.273475,153.658066 C96.9775401,147.60065 95.4050081,136.464866 95.9186284,133.608971 C96.5052297,130.73793 97.7610521,129.96268 96.9720321,129.796063 C96.4405108,129.68728 92.7790724,129.975073 90.7273451,136.752658 C88.6742407,143.528867 91.2024095,151.257958 94.8610938,157.232753 C98.3407684,164.455109 103.34478,168.814685 102.771949,169.38614 C101.86313,170.297712 99.5580348,169.328306 96.8825272,167.009441 C94.2070196,164.691953 89.3806408,159.979865 86.3402287,154.807859 C83.3397495,149.478876 83.2199506,144.379851 83.678491,139.411642 C83.9015648,136.993633 84.459249,132.612024 84.9315594,131.248796 C85.3226269,130.119658 86.2245608,128.277234 85.9450302,128.140911 C85.4093778,127.87515 82.2051029,129.320999 79.796733,134.940528 C77.3869861,140.55455 76.5773111,149.554611 78.0933862,155.351773 C79.6094612,161.150313 86.106139,169.448105 86.106139,170.279811 C86.106139,171.224432 82.2216269,169.505938 81.1516993,168.617775 C79.793979,167.488636 76.7095029,165.195934 73.4047071,158.955378 C71.1092511,154.621964 68.1500818,145.670099 68.2395867,137.823963 C68.6458012,102.05781 88.8725284,92.0842121 110.653887,86.4330113 C145.500204,78.7534921 210.002933,100.63124 201.556426,171.380033 C198.754234,187.18935 193.55882,200.71285 176.540499,215.810258 C172.331015,219.612151 164.600547,224.048839 162.552951,225.209648 C151.908754,231.234016 141.836012,233.401411 137.629282,232.75973 C135.525229,233.194861 133.459732,230.968255 141.852536,228.418054 C142.38268,228.185342 141.991613,227.224197 141.290721,226.816605 C138.801108,225.381773 130.665802,225.522227 125.791228,226.634842 C121.420636,227.259999 108.571865,229.57611 102.594316,229.129962 C96.6153896,228.685192 91.4681701,227.702015 83.9043188,223.638493 C83.2529986,223.201985 80.0198067,221.641846 79.4841544,222.623646 C78.9485021,223.601315 78.8603742,224.138344 80.4659541,225.653042 C83.6358041,228.645259 91.0316617,237.453917 91.8867776,238.402669 C93.4923575,240.187258 95.9902324,242.594251 98.6684939,244.468346 C125.283116,263.806909 148.446981,253.066323 147.886542,249.247907 C147.748842,248.399676 147.737826,247.234735 145.778358,247.321486 C143.818889,247.409614 139.977064,248.026509 137.998318,247.868155 C138.290241,247.892941 131.472723,247.813075 126.862533,242.685133 C126.076267,241.605567 125.670053,240.634783 128.11147,240.813793 C130.521217,240.990048 146.400761,240.378661 161.041006,236.887971 C172.28282,234.209709 180.002272,231.465351 188.972039,226.278199 C202.900376,218.228267 250.310426,184.311424 227.895648,113.31064 C223.167036,98.3275222 219.731426,92.0071002 211.5135,79.7366688 L211.5135,79.7366688 Z" id="Fill-8"></path>
        </g>
    </g>
</svg>